<svg width="35" height="35" viewBox="0 0 35 35" fill="none" xmlns="http://www.w3.org/2000/svg">
<path d="M9.04258 30.625H2.69336V10.1788H9.04258V30.625ZM5.86455 7.3897C3.83428 7.3897 2.1875 5.70806 2.1875 3.67778C2.1875 2.70257 2.5749 1.7673 3.26448 1.07772C3.95406 0.388135 4.88934 0.000732422 5.86455 0.000732422C6.83977 0.000732422 7.77504 0.388135 8.46462 1.07772C9.1542 1.7673 9.5416 2.70257 9.5416 3.67778C9.5416 5.70806 7.89414 7.3897 5.86455 7.3897ZM32.8057 30.625H26.4701V20.6719C26.4701 18.2999 26.4223 15.2579 23.169 15.2579C19.868 15.2579 19.3621 17.835 19.3621 20.501V30.625H13.0197V10.1788H19.1092V12.9678H19.198C20.0457 11.3614 22.1163 9.66606 25.2055 9.66606C31.6313 9.66606 32.8125 13.8975 32.8125 19.3936V30.625H32.8057Z" fill="#9A7E88"/>
</svg>
