<svg width="78" height="70" viewBox="0 0 78 70" fill="none" xmlns="http://www.w3.org/2000/svg">
<g filter="url(#filter0_d_25_181)">
<path d="M19.6687 24.1521L18.3102 29.2238C17.981 30.4543 17.9132 31.7274 18.0466 32.9852L14.1966 36.1549C13.478 36.7466 12.4127 36.1079 12.5976 35.1957L14.2863 26.8088C14.4023 26.2335 13.9954 25.6844 13.4113 25.6287L4.89539 24.8029C3.96899 24.7132 3.66711 23.509 4.44258 22.9938L11.5684 18.2579C12.0562 17.933 12.1568 17.2571 11.7849 16.8043L6.34789 10.1969C5.75617 9.47836 6.39492 8.41414 7.30821 8.59789L15.6951 10.2866C16.2704 10.4026 16.8195 9.9957 16.8763 9.41164L17.7021 0.8957C17.7918 -0.0318002 18.996 -0.332582 19.5123 0.442887L24.2482 7.56757C24.5731 8.05539 25.249 8.15601 25.7018 7.78414L32.3081 2.34711C33.0266 1.75539 34.0909 2.39414 33.9071 3.30632L32.6679 9.44882C32.3715 9.78242 32.074 10.1149 31.8027 10.4769L28.2863 15.1768L27.1149 16.743C23.5351 17.7012 20.6421 20.5198 19.6687 24.1521ZM73.7623 38.6454L72.4038 43.716C72.0615 44.9935 71.3779 46.0796 70.4843 46.9273C70.1869 47.2088 69.8664 47.465 69.5262 47.6929L67.996 53.4055C67.8713 53.8726 67.657 54.2915 67.3781 54.6502C66.5392 55.7265 65.1096 56.2559 63.7096 55.8807L60.3288 54.9751C58.4618 54.4752 57.3538 52.5557 57.8537 50.6887L58.7593 47.3079L31.7131 40.0607L30.8074 43.4415C30.3076 45.3085 28.3881 46.4165 26.521 45.9166L23.1402 45.011C21.7402 44.6359 20.7668 43.4623 20.5787 42.1115C20.5163 41.6609 20.5404 41.1905 20.6651 40.7246L22.1952 35.0119C22.0142 34.6442 21.8646 34.2619 21.7479 33.869C21.3979 32.6888 21.3487 31.4059 21.691 30.1284L23.0495 25.0566C23.6302 22.891 25.167 21.2471 27.0843 20.4399C27.729 20.1683 28.4106 19.9943 29.1066 19.9237L31.0896 17.2735L34.606 12.5737C34.9834 12.0694 35.3924 11.6002 35.831 11.1693C36.706 10.3063 37.6937 9.58992 38.7557 9.03539C39.2873 8.75757 39.8374 8.52023 40.4018 8.32554C41.5316 7.93398 42.7195 7.70976 43.9281 7.66492C45.1366 7.62007 46.3682 7.75461 47.5845 8.08054L61.0026 11.6757C62.2188 12.0016 63.352 12.5004 64.3768 13.1446C65.9062 14.1049 67.2024 15.3939 68.171 16.918C69.1357 18.4362 69.7723 20.1818 69.9954 22.0576L70.691 27.8862L71.0837 31.1729C72.2194 31.9929 73.0853 33.1325 73.5709 34.4465C74.051 35.7459 74.1495 37.2016 73.7623 38.6454ZM31.9548 25.6319C29.9259 25.0884 28.2131 26.0738 27.6706 28.0962C27.1281 30.1185 28.1201 31.828 30.1479 32.3716C32.1768 32.9152 35.1288 34.068 35.6702 32.0457C36.2127 30.0234 33.9826 26.1755 31.9548 25.6319ZM63.7402 28.713L63.0446 22.8844C62.9812 22.3518 62.8379 21.8421 62.6268 21.3685C61.9924 19.9477 60.7456 18.8518 59.1902 18.4351L45.7721 14.8399C44.7586 14.5684 43.6869 14.6068 42.6954 14.9501C41.7039 15.2934 40.838 15.9259 40.2093 16.766L36.6929 21.4659L55.5054 26.5059L63.7402 28.713ZM65.7626 34.6904C63.7337 34.1468 59.8782 36.3649 59.3368 38.3862C58.7954 40.4085 61.9279 40.8865 63.9568 41.4301C65.9857 41.9737 67.6985 40.9882 68.241 38.9659C68.7824 36.9446 67.7915 35.234 65.7626 34.6904Z" fill="#2A1F2D" fill-opacity="0.7" shape-rendering="crispEdges"/>
</g>
<defs>
<filter id="filter0_d_25_181" x="0" y="0" width="78.0008" height="70.0008" filterUnits="userSpaceOnUse" color-interpolation-filters="sRGB">
<feFlood flood-opacity="0" result="BackgroundImageFix"/>
<feColorMatrix in="SourceAlpha" type="matrix" values="0 0 0 0 0 0 0 0 0 0 0 0 0 0 0 0 0 0 127 0" result="hardAlpha"/>
<feOffset dy="10"/>
<feGaussianBlur stdDeviation="2"/>
<feComposite in2="hardAlpha" operator="out"/>
<feColorMatrix type="matrix" values="0 0 0 0 0.780392 0 0 0 0 0.490196 0 0 0 0 0.611765 0 0 0 0.5 0"/>
<feBlend mode="normal" in2="BackgroundImageFix" result="effect1_dropShadow_25_181"/>
<feBlend mode="normal" in="SourceGraphic" in2="effect1_dropShadow_25_181" result="shape"/>
</filter>
</defs>
</svg>
